<svg xmlns="http://www.w3.org/2000/svg" viewBox="0 0 512 512" width="512" height="512">
  <defs>
    <linearGradient id="goldGrad" x1="0%" y1="0%" x2="100%" y2="100%">
      <stop offset="0%" stop-color="#d49b5c" />
      <stop offset="50%" stop-color="#c58a4b" />
      <stop offset="100%" stop-color="#b57a39" />
    </linearGradient>
  </defs>
  
  <!-- Rounded squircle badge -->
  <rect x="16" y="16" width="480" height="480" rx="112" ry="112" fill="url(#goldGrad)" />
  
  <!-- Lucide Building2 icon centered -->
  <g transform="translate(106, 106) scale(12.5)" fill="none" stroke="#12100e" stroke-width="2.2" stroke-linecap="round" stroke-linejoin="round">
    <path d="M10 12h4" />
    <path d="M10 8h4" />
    <path d="M14 21v-3a2 2 0 0 0-4 0v3" />
    <path d="M6 10H4a2 2 0 0 0-2 2v7a2 2 0 0 0 2 2h16a2 2 0 0 0 2-2V9a2 2 0 0 0-2-2h-2" />
    <path d="M6 21V5a2 2 0 0 1 2-2h8a2 2 0 0 1 2 2v16" />
  </g>
</svg>
